<?xml version="1.0" encoding="utf-8"?>
<svg version="1.1" id="Layer_1" xmlns="http://www.w3.org/2000/svg" xmlns:xlink="http://www.w3.org/1999/xlink" x="0px" y="0px"
	 viewBox="0 0 500 500" enable-background="new 0 0 500 500" xml:space="preserve">
<g>
	<path fill="#9D9C9C" d="M460,273.2c6.1-4.3,12.4-7.7,17.1-12.5c4.3-4.3,8.4-9.9,9.9-15.7c2.8-11,1.3-22.3-2.8-33
		c-2.6-6.8-7.6-10.7-15-11.1c-11.3-0.5-22.7-1.6-34-1.6c-34.6,0-69.1,0.3-103.7,0.6c-8.4,0.1-11-2.2-11.8-10.8
		c-0.2-2-0.4-4.1-0.2-6.1c2.4-21.5,4.8-42.9,7.4-64.3c1.2-10.3,3.4-20.6,3.7-30.9c0.3-9.2-1.1-18.6-2.5-27.8
		c-2.3-14.9-6.4-29.3-15.9-41.5c-12.6-16.2-34-18.4-49.9-5.5c-9,7.3-11.1,17.3-11.4,27.9c-0.6,18.3-0.9,36.6-1.4,54.9
		c-0.1,2-0.4,4.1-1.4,5.8c-22.2,39.1-44.4,78.2-66.7,117.2c-0.8,1.5-2.9,2.9-4.6,3.1c-5.8,0.9-11.6,1.2-17.4,1.8
		c-9.8,0.9-19.7,1.9-29.5,2.8c0,71.2,0,141.9,0,212.9c6.3,0,12.3,0.2,18.2-0.1c4.4-0.2,8.2,1,12,3.2c23.3,13.6,46.7,27,70.1,40.4
		c1.9,1.1,4.4,1.9,6.6,1.9c57,0.1,114,0.1,171,0c2.3,0,5-0.9,6.9-2.3c19-13.4,23.8-33.1,13.4-54.6c-2.4-4.9-5.4-9.6-7.9-14
		c7-4,14.4-7.4,20.9-12c16.9-11.9,19.4-27.2,7.7-44.1c-2.8-4.1-6.3-7.7-9.8-11.9c13.8-6.4,25.7-14.8,29.3-30.6
		C471.9,300,467,286.3,460,273.2z M5.1,190.7c15.4,98.3,30.8,196,46.1,293.8c22.4,0,44.3,0,66.2,0c0-98.2,0-196,0-293.8
		C80,190.7,42.9,190.7,5.1,190.7z"/>
</g>
</svg>
