<?xml version="1.0" encoding="utf-8"?>
<!-- Generator: Adobe Illustrator 18.1.1, SVG Export Plug-In . SVG Version: 6.00 Build 0)  -->
<svg version="1.1" id="Layer_1" xmlns="http://www.w3.org/2000/svg" xmlns:xlink="http://www.w3.org/1999/xlink" x="0px" y="0px"
	 viewBox="0 0 500 500" enable-background="new 0 0 500 500" xml:space="preserve">
<g>
	<path fill-rule="evenodd" clip-rule="evenodd" fill="#9D9C9C" d="M361.4,125.1H140.6c-10.2,0-18.4,8.2-18.4,18.4
		c0,10.2,8.2,18.4,18.4,18.4h220.8c10.2,0,18.4-8.2,18.4-18.4C379.8,133.3,371.6,125.1,361.4,125.1z M435,14.7H67
		c-30.5,0-55.2,24.7-55.2,55.2v294.4c0,30.5,24.7,55.2,55.2,55.2h165.4l73.8,73.8l73.8-73.8h55c30.5,0,55.2-24.7,55.2-55.2V69.9
		C490.2,39.4,465.5,14.7,435,14.7z M453.4,345.9c0,20.3-16.5,36.8-36.8,36.8h-55l-55.4,55.4l-55.4-55.4H85.4
		c-20.3,0-36.8-16.5-36.8-36.8V88.3c0-20.3,16.5-36.8,36.8-36.8h331.2c20.3,0,36.8,16.5,36.8,36.8V345.9z M361.4,217.1H214.2
		c-10.2,0-18.4,8.2-18.4,18.4c0,10.2,8.2,18.4,18.4,18.4h147.2c10.2,0,18.4-8.2,18.4-18.4C379.8,225.3,371.6,217.1,361.4,217.1z"/>
</g>
</svg>
