<?xml version="1.0" encoding="utf-8"?>
<!-- Generator: Adobe Illustrator 18.1.1, SVG Export Plug-In . SVG Version: 6.00 Build 0)  -->
<svg version="1.1" id="Layer_1" xmlns="http://www.w3.org/2000/svg" xmlns:xlink="http://www.w3.org/1999/xlink" x="0px" y="0px"
	 viewBox="0 0 841.9 704.5" enable-background="new 0 0 841.9 704.5" xml:space="preserve">
<g display="none">
	<path display="inline" fill="#9C9C9C" d="M559.6,58.7c7,0,13.9,0,20.9,0c5.1,0.6,10.3,0.6,15.5,1.1c12.5,1.2,24.1,5.4,35.5,10.5
		c16.2,7.4,30.8,17,43.2,29.9c2.5,2.6,5.3,3,8.6,2.3c17.7-4.1,35.1-9.4,51.8-16.5c11.1-4.7,21.8-10.1,32.3-16c1.3-0.8,2.8-2,4.3-0.7
		c1.5,1.2,0.7,3,0.2,4.4c-5.6,16.1-13.8,30.8-24.4,44.1c-8.4,10.5-18.1,19.8-29,27.7c-1.9,1.3-3.8,2.6-5,3.3
		c4.9-0.8,10.8-1.7,16.5-2.9c19.2-3.9,37.8-9.7,55.9-17.2c1.6-0.7,3.7-2.6,5.1-0.8c1.3,1.7-0.1,4.1-1.3,5.8
		c-4.4,6.3-8.9,12.5-13.9,18.5c-15.3,18.4-32.2,35.2-51.3,49.6c-3.7,2.8-5.3,5.8-5.1,10.4c0.3,6.5,0.1,13.1,0.1,19.6
		c-0.3,22.1-2.5,44-6.5,65.7c-6.7,36.5-17.8,71.7-33.4,105.4c-16.5,35.6-37,68.7-62.4,98.8c-8,9.4-16.2,18.6-25,27.3
		c-27.5,27.1-58.1,50.1-92.1,68.5c-40.5,21.9-83.6,36.1-129,43.6c-14.7,2.4-29.5,3.9-44.5,4c-12.7,0.2-25.4,0.7-38,0.5
		c-13.5-0.3-27,0-40.3-1.5c-19.4-2.1-38.6-5.8-57.5-10.7c-36.9-9.6-71.8-24.1-104.8-43c-3.9-2.3-7.8-4.6-11.7-7
		c-0.7-0.4-1.4-0.9-2.1-1.5c-1.1-0.9-2.2-2-1.5-3.6c0.7-1.4,2.2-1.1,3.4-1c11.9,1.2,23.8,2,35.7,1.7c27.8-0.8,55-4.7,81.6-12.8
		c32.4-9.9,62.2-24.9,89.6-44.9c0.8-0.6,1.8-1,2.3-2.3c-7.6-1-15.2-1.6-22.6-3.2c-24.8-5.3-46.8-16.2-66-32.6
		c-20.5-17.4-35.2-38.8-44.3-64.1c-0.2-0.6-0.4-1.2-0.6-1.8c-0.7-3,0.2-4.2,3.3-4.1c3.2,0.1,6.3,0.9,9.4,1.3
		c11.8,1.7,23.6,1.1,35.3-0.5c4.1-0.5,8.1-1.2,12.3-2c-7.2-1.8-14.2-4.2-21-7.1c-6.9-2.9-13.5-6.4-20-10.2
		c-6.5-3.8-12.5-8.3-18.3-13.1c-5.8-4.8-11.2-10.1-16.1-15.7c-20.3-23.1-32.4-49.9-36.6-80.4c-0.8-5.9-0.9-11.8-0.7-17.7
		c0.1-4.4,1.3-5,5.3-2.9c17.2,9,35.6,14.3,54.9,16.2c0.4,0,0.8,0.1,1.4-0.2c-0.7-1.1-1.8-1.6-2.8-2.4
		c-17.5-13.9-31.7-30.6-41.8-50.6c-8-15.8-13.2-32.5-15.1-50.1c-3.3-31.3,1.7-61.2,16.9-89.1c2.9-5.3,4.1-5.4,8-0.7
		c8.4,10.3,17.4,20.2,26.9,29.5c27.4,26.8,57.8,49.9,91.3,68.7c38.7,21.6,79.8,36.5,123.2,45.1c15.3,3,30.7,5.5,46.4,6.3
		c2.2,0.1,4.4,0.6,6.6,0.6c3.3-0.1,4-0.8,3.5-4c-0.8-5-1.4-10-1.8-15.1c-0.9-11.6-0.7-23.2,1-34.7c4.1-27.6,15.1-52.2,33-73.6
		c21.8-26,49.3-43,82.5-50.3c6.7-1.5,13.6-1.4,20.5-1.6C558.2,59,558.9,59.2,559.6,58.7z"/>
</g>
<path fill-rule="evenodd" clip-rule="evenodd" fill="#9C9C9C" d="M485.7,351.8l-30.2,12.8l53.6,22.8
	c53.2,20.5,63.5,115.1,65.4,177.1h209.2l0.2-10.2c0-36.8-2.9-144.9-42.9-159.6l-101.1-42.9c-14.3-6.8-24.9-17.7-28.8-27.1
	c13.6-14.7,24.5-33.7,28.9-50.7l6.3-3.7c8.4-23,11-43.4,10-62.2l-4.6-3.6c1.2-17,0.7-47.7-7.4-62.7c-13.7-25.3-48.5-42.8-76.1-43.1
	h-10.6c-27.6,0.3-62.4,17.8-76.1,43.1c-8.1,15-8.6,45.6-7.4,62.7l-4.6,3.6c-1,18.8,1.6,39.2,10,62.2l6.3,3.7
	c4.4,17,15.2,36,28.9,50.7C510.6,334.2,500,345,485.7,351.8L485.7,351.8z M213.3,365.6l-113,48c-44.8,16.5-48,137.4-48,178.5
	l0.2,11.4h494l0.2-11.4c0-41.1-3.2-162-48-178.5l-113-48c-16-7.7-27.9-19.8-32.2-30.4c15.2-16.4,27.4-37.7,32.3-56.6l7-4.1
	C402,248.9,405,226,403.8,205l-5.2-4c1.4-19,0.8-53.3-8.3-70.1c-15.3-28.3-54.2-47.9-85.1-48.2h-11.8c-30.9,0.3-69.7,19.9-85.1,48.2
	c-9.1,16.8-9.6,51-8.3,70.1l-5.2,4c-1.1,21,1.8,43.9,11.2,69.5l7,4.1c4.9,19,17,40.2,32.3,56.6C241.2,345.9,229.3,358,213.3,365.6
	L213.3,365.6z"/>
</svg>
