<?xml version="1.0" encoding="utf-8"?>
<svg version="1.1" id="Layer_1" xmlns="http://www.w3.org/2000/svg" xmlns:xlink="http://www.w3.org/1999/xlink" x="0px" y="0px"
	 viewBox="0 0 500 500" enable-background="new 0 0 500 500" xml:space="preserve">
<g>
	<path fill="#9D9C9C" d="M70.8,100.3c0,102.2,0,201.4,0,302c119.2,0,237.5,0,358.2,0c0-38.5,0-76.4,0-114.3c0-14.3,4-26.2,19.7-30
		c18.5-4.5,34,5,34.5,24c1.1,48.1,1.3,96.2-0.4,144.3c-0.8,22.9-14.9,32.3-42.1,32.4c-71.9,0.3-143.8,0.1-215.6,0.1
		c-54.4,0-108.8,0.1-163.1-0.1c-35.2-0.2-45.7-11-45.8-46.2c-0.1-106.9-0.1-213.8,0-320.6c0-35,10.7-45.8,45.9-45.9
		c40.6-0.2,81.3-0.1,121.9-0.1c13.9,0,26.6,2.4,31.6,17.8c6.5,20-5.1,36-27.4,36.5c-31.9,0.6-63.7,0.2-95.6,0.2
		C85.9,100.3,79.1,100.3,70.8,100.3z"/>
	<path fill="#9D9C9C" d="M327.7,36.8c56.6,40.8,109.4,79,164.8,118.9c-54.6,45.6-107.6,89.8-164.8,137.5c0-23.2,0-42.6,0-62
		c-0.1-23-0.7-23.7-23.3-19.3c-51.6,10.1-89.1,43.2-124.9,78.5c-11,10.9-21.2,22.7-35.8,38.5c1.9-15,2.6-24.9,4.5-34.6
		c14.3-71.1,45.4-131,113.5-164.6c16.5-8.2,35-13,53.1-17.2c10.2-2.4,13.2-6.4,12.9-16.2C327.3,78.1,327.7,59.7,327.7,36.8z"/>
</g>
</svg>
