<?xml version="1.0" encoding="utf-8"?>
<!-- Generator: Adobe Illustrator 19.0.0, SVG Export Plug-In . SVG Version: 6.00 Build 0)  -->
<svg version="1.1" id="Layer_1" xmlns="http://www.w3.org/2000/svg" xmlns:xlink="http://www.w3.org/1999/xlink" x="0px" y="0px"
	 viewBox="-709 490.6 500 101.4" style="enable-background:new -709 490.6 500 101.4;" xml:space="preserve">
<style type="text/css">
	.st0{display:none;opacity:0.36;}
	.st1{display:inline;fill:#FFFFFF;}
	.st2{opacity:0.36;}
	.st3{fill:#FFFFFF;}
</style>
<g class="st0">
	<path class="st1" d="M-473.1,542.1c0-15.1,0-29.9-0.1-45c0-1.6,0.4-2.3,2.2-2.4c5.3-0.8,10.7-1.7,16-2.7c2.2-0.4,2.3-0.4,2.2,1.8
		c-0.1,9.3-0.1,18.7-0.1,28c0,3,0.1,3,3,2.3c8.7-2.3,17.6-2.8,26.3,0.2c5.5,1.8,8.8,5.8,9.8,11.5c0.8,4,1,8.1,1.1,12.2
		c0.2,4.7,0.1,9.4,0,14.2c-0.1,5-0.1,10-1.9,14.9c-2.2,5.8-6.3,9.7-12,11.9c-4.1,1.5-8.3,2.4-12.6,2.5c-3.7,0.2-7.6,0.4-11.3,0.2
		c-4.8-0.2-9.6-0.9-14.5-1.4c-2.3-0.2-4.5-0.7-6.9-0.9c-1.1-0.1-1.4-0.6-1.4-1.7c0.1-5.5,0-11.1,0-16.5c0-9.6,0-19.4,0-29
		C-472.9,542.1-472.9,542.1-473.1,542.1z M-432.9,556.5L-432.9,556.5c0.1-3,0.1-6,0.1-9.1c0-5-3.2-8-8.2-8.1
		c-3.8-0.1-7.2,0.8-10.6,2.5c-0.5,0.2-1,1.1-1,1.7c0,10,0,20.1,0,30.1c0,1,0.4,1.4,1.4,1.4c3.1,0,6.3,0.2,9.3,0
		c4.5-0.4,8.2-2.2,8.8-8C-432.7,563.5-432.9,560-432.9,556.5z"/>
	<path class="st1" d="M-250.7,491.8c0,20.4,0,40.7,0,61c0.1,0.1,0.3,0.2,0.5,0.2c0.4-0.3,0.9-0.6,1.1-1.1c2.4-3.7,4.6-7.3,7.1-11
		c3.6-5.5,7-11.1,10.6-16.6c0.4-0.5,1.2-1.2,1.9-1.2c6.6-0.1,13.1,0,19.6,0c0.2,0,0.5,0.1,0.9,0.2c-0.8,1.3-1.5,2.6-2.3,3.8
		c-5.7,9.1-11.5,18.2-17.3,27.3c-0.8,1.2-0.8,2.3,0,3.5c6.3,10.4,12.4,20.8,18.7,31.1c0.3,0.5,0.5,1.1,0.9,1.8
		c-0.7,0.1-1.2,0.1-1.7,0.1c-6,0-12.1,0-18,0.1c-1.2,0-2.1-0.5-2.6-1.5c-5.5-9.1-11-18.2-16.5-27.4c-0.4-0.6-0.7-1.2-1.1-1.8
		c-0.2-0.3-0.6-0.4-0.9-0.7c-0.1,0.4-0.4,0.8-0.5,1.2c-0.1,0.4,0,0.8,0,1.2c0,9,0,17.9,0,26.9c0,1.5-0.4,2.1-2.1,2.1
		c-5.4-0.1-10.8-0.1-16.3-0.1c-2.1,0-2.1-0.1-2.1-2.3c0-16.6,0-33.1,0-49.6c0-13.9,0-27.9,0-41.8c0-2.1,0.1-2.2,2.2-2.6
		c5.6-0.9,11.4-1.9,17-2.9C-251.4,491.9-251.1,491.9-250.7,491.8z"/>
	<path class="st1" d="M-482.7,573c0,4.4,0,8.7,0,13c0,3.3,0,3.3-3.1,3.9c-10.9,2.1-21.9,3-33,1c-6.6-1.1-12.2-4.3-16.2-9.9
		c-2.6-3.8-4.2-7.9-4.3-12.4c-0.2-8.2-0.3-16.4,0-24.6c0.2-5.7,2.5-10.9,7-15c3.8-3.5,8.3-5.1,13.3-5.9c7-1.1,13.8-1.1,20.7,0.7
		c9.6,2.5,15.5,8.6,16.7,18.3c0.8,6.5,0.4,13.1,0.5,19.6c0,0.3-0.6,0.8-1.1,1c-0.4,0.2-0.9,0.1-1.4,0.1c-11.2,0-22.4,0-33.7,0
		c-2.1,0-2.3,0.2-2.2,2.3c0.1,1.2,0.1,2.6,0.4,3.9c0.7,3.3,3,5.3,6.4,5.8c6.3,0.7,12.6,0.5,18.9-0.2
		C-490.2,574-486.5,573.5-482.7,573z M-510.4,549.5L-510.4,549.5c2.5,0,5,0.1,7.4,0c0.8,0,1.6-0.1,1.6-1.1c0.3-5-0.6-9.9-7-10.9
		c-1.1-0.2-2.3-0.2-3.4-0.1c-4.2,0.2-6.8,2.4-7.6,6.5c-0.2,1.2-0.2,2.7-0.3,4c-0.1,1.1,0.4,1.6,1.6,1.6
		C-515.5,549.4-512.9,549.5-510.4,549.5z"/>
	<path class="st1" d="M-405.9,557.1c0.2-4.8,0.2-9.2,0.8-13.6c1.5-10.9,7.8-17.4,18.5-19.9c8.6-2,17.2-2,25.6,0.8
		c9,3.1,14.2,9.5,15.3,18.8c0.8,7.8,0.5,15.7,0.5,23.6c0,5-1.4,9.7-4.1,14c-3,4.7-7.3,7.3-12.3,9c-4.5,1.4-9.2,1.9-13.8,1.9
		c-5.5-0.1-11.1-0.7-16.3-3.1c-7.7-3.4-11.8-9.5-13.1-17.6C-405.7,566.4-405.7,561.6-405.9,557.1z M-365.7,556.5L-365.7,556.5
		c0-3.3,0.1-6.6,0-9.9c-0.1-2.9-1.5-5.3-4.2-6.3c-1.9-0.7-4.1-1-6.2-1.1c-5.7-0.2-9.3,3.4-9.3,9.1c0,5.7,0,11.5,0,17.2
		c0,1.1,0.1,2.2,0.4,3.3c0.5,2.4,1.9,4,4.2,5c2.8,1.2,5.6,1.4,8.6,0.8c4-0.8,6.4-3.3,6.6-7.3C-365.5,563.8-365.7,560.1-365.7,556.5z
		"/>
	<path class="st1" d="M-338.4,556.2c0.2-4.1,0.2-9,1-13.8c1.5-9.3,7.1-15.6,16.2-18.1c9.5-2.8,19.2-2.8,28.6,0.6
		c8.6,3.2,13.1,9.7,14.4,18.6c0.5,3.1,0.5,6.3,0.5,9.4c0,5.2,0.1,10.5-0.1,15.6c-0.4,6.2-2.5,11.8-7.2,16.1
		c-3.6,3.4-8.1,5.3-12.9,6.3c-8,1.4-15.9,1.4-23.7-1.1c-9.3-3-14.6-9.6-15.9-19.2C-338.3,566.1-338,561.5-338.4,556.2z M-298.1,557
		c0,0,0.1,0,0.2,0c0-2.9,0-5.8,0-8.6c0-4.8-2.5-7.9-7.2-8.9c-1.2-0.2-2.6-0.2-3.9-0.2c-5.2,0-8.9,3.3-9,8.5c-0.1,6-0.1,12.1,0,18.1
		c0.1,4.9,2.2,7.7,6.7,8.6c2.2,0.4,4.5,0.4,6.7,0c4.1-0.8,6.2-3,6.6-7.2C-297.9,564-298.1,560.5-298.1,557z"/>
	<path class="st1" d="M-623.2,591.1c-0.2-1-0.3-1.9-0.4-2.8c-0.2-1.1-0.7-1.6-1.8-0.9c-3.7,1.9-7.6,3.4-11.7,4
		c-5.5,0.8-11.2,1.1-16.4-1.4c-5.8-2.9-8.5-8-9.5-14.1c-0.5-3.5-0.3-6.9,0.4-10.3c1.5-6.8,6.2-10.4,12.6-11.7
		c1.8-0.4,3.8-0.6,5.6-0.6c5.4-0.2,11.1-0.2,16.5-0.3c1,0,1.3-0.3,1.3-1.3c-0.1-1.8-0.2-3.8-0.2-5.7c-0.1-3.3-2.8-4.9-5.8-5.2
		c-2.4-0.2-4.7-0.3-7.1-0.3c-4.9-0.1-9.7,0-14.7,0c-0.5,0-1.1,0-1.8,0c0.5-4.5,0.9-8.8,1.3-13.1c0-0.1,0-0.2,0-0.3
		c0.5-3.5,0.5-3.5,3.9-3.5c7,0,13.9-0.1,20.9,0.1c4.4,0.1,8.9,0.8,13.1,2.5c5.9,2.5,9,7.2,9.9,13.3c0.6,4.4,0.8,8.9,0.9,13.3
		c0.1,12.2,0,24.6,0.1,36.8c0,1.4-0.3,1.9-1.8,1.9c-4.5-0.1-9-0.1-13.6-0.1C-622.1,591.1-622.8,591.1-623.2,591.1z M-632.8,566.5
		c0-0.1,0-0.1,0-0.2c-2.3,0.2-4.5,0.2-6.8,0.4c-1.3,0.2-2.6,0.8-3.1,2.3c-1.7,4.3,0.9,8.4,5.6,8.4c3.4,0,6.6-1.2,9.5-2.7
		c0.4-0.2,0.7-0.9,0.8-1.4c0.1-1.8,0-3.6,0.1-5.4c0.1-1.1-0.4-1.4-1.4-1.4C-629.8,566.5-631.3,566.5-632.8,566.5z"/>
	<path class="st1" d="M-662.5,523.3c-0.3,3.6-0.7,6.9-1,10c-0.2,1.5-0.4,3.1-0.4,4.6c0,1.4-0.5,2.2-2.1,2.1
		c-3.2-0.1-6.4-0.1-9.5-0.1c-2.6,0-2.6,0-2.6,2.6c0,15.5,0,30.9,0,46.2c0,2.2,0,2.2-2.3,2.2c-5.3,0-10.7,0-15.9,0
		c-2.2,0-2.2,0-2.2-2.1c0-15.4,0-30.8,0-46.1c0-2.7,0-2.7-2.7-2.7c-2.2,0-4.3-0.1-6.5,0c-1,0-1.5-0.4-1.4-1.4
		c0.1-4.7,0.1-9.4,0.1-14.1c0-0.9,0.3-1.3,1.3-1.3c2.4,0,4.7,0,7.1,0c1.9,0,2.2-0.2,2.2-2.2c0-3.7,0-7.4,0-11
		c0.1-3.8,0.8-7.5,2.6-10.9c2.7-5.1,7.3-8,12.7-8.7c6.4-0.5,13.1-0.4,19.5-0.7c0.3,0,1,0.7,1,1.1c0,4.9,0,9.7,0,14.6
		c0,1-0.5,1.2-1.3,1.2c-2.9,0-5.6-0.1-8.5,0.2c-4.5,0.3-5.8,1.9-5.9,6.4c0,2.8,0,5.4,0,8.2c0,1.3,0.5,1.8,1.8,1.8c4-0.1,8,0,12.1,0
		C-663.9,523.3-663.3,523.3-662.5,523.3z"/>
	<path class="st1" d="M-546.7,541.1c-2.7-0.4-5-0.8-7.4-1.1c-5.2-0.8-10.6-1.3-15.8-0.8c-5.8,0.6-8.3,3.4-8.3,9.3
		c-0.1,5.6-0.1,11.2,0,16.8c0.1,2.7,0.2,5.3,2.5,7.3c1.9,1.7,4.2,2.1,6.6,2.3c6,0.3,12-0.2,17.9-1.3c1.4-0.2,2.9-0.5,4.3-0.7
		c0.1,0.4,0.1,0.8,0.1,1.2c0,4.6,0,9.1,0.1,13.7c0,1.1-0.4,1.5-1.4,1.7c-7.5,1.5-15,2.7-22.7,2.2c-6.6-0.4-12.7-1.8-18.1-5.8
		c-4.8-3.6-7.4-8.4-8.6-14c-0.6-2.7-0.8-5.3-0.9-8.1c-0.1-6-0.2-12.2,0.3-18.2c0.6-7.8,4.1-14.1,10.8-18.6c4.3-2.9,9.2-4,14.4-4.5
		c8.4-0.8,16.6,0.3,24.8,2.1c0.6,0.1,1.4,0.8,1.4,1.2C-546.7,530.9-546.7,535.9-546.7,541.1z"/>
</g>
<g class="st2">
	<path class="st3" d="M-610.1,519.4h11.8v-21.3h15.6v21.2h14.1v11.6h-14.1v37.8c0,1.6,0.1,3.1,0.2,4.2c0.1,1.2,0.5,2.2,1,3
		c0.5,0.8,1.3,1.4,2.3,1.8s2.4,0.6,4.1,0.6c1.1,0,2.2,0,3.3-0.1c1.1,0,2.2-0.2,3.3-0.5v12.1c-1.7,0.2-3.4,0.4-5.1,0.5
		c-1.6,0.2-3.3,0.3-5.1,0.3c-4.1,0-7.4-0.4-9.9-1.2s-4.5-1.9-5.9-3.4s-2.4-3.4-2.9-5.7c-0.5-2.3-0.8-4.9-0.9-7.8V531h-11.8V519.4z"
		/>
	<path class="st3" d="M-563.8,519.4h16.6l13.8,52.9h0.3l13.3-52.9h15.8l12.7,52.9h0.3l14.4-52.9h15.9l-22.2,70.8h-16l-13.2-52.6
		h-0.3l-13,52.6h-16.4L-563.8,519.4z"/>
	<path class="st3" d="M-450.3,492.4h15.6v14.8h-15.6V492.4z M-450.3,519.4h15.6v70.8h-15.6V519.4z"/>
	<path class="st3" d="M-424.8,519.4h11.8v-21.3h15.6v21.2h14.1v11.6h-14.1v37.8c0,1.6,0.1,3.1,0.2,4.2c0.1,1.2,0.5,2.2,1,3
		c0.5,0.8,1.3,1.4,2.3,1.8s2.4,0.6,4.1,0.6c1.1,0,2.2,0,3.3-0.1c1.1,0,2.2-0.2,3.3-0.5v12.1c-1.7,0.2-3.4,0.4-5.1,0.5
		c-1.6,0.2-3.3,0.3-5.1,0.3c-4.1,0-7.4-0.4-9.9-1.2s-4.5-1.9-5.9-3.4s-2.4-3.4-2.9-5.7c-0.5-2.3-0.8-4.9-0.9-7.8V531h-11.8V519.4z"
		/>
	<path class="st3" d="M-379.2,519.4h11.8v-21.3h15.6v21.2h14.1v11.6h-14.1v37.8c0,1.6,0.1,3.1,0.2,4.2c0.1,1.2,0.5,2.2,1,3
		c0.5,0.8,1.3,1.4,2.3,1.8s2.4,0.6,4.1,0.6c1.1,0,2.2,0,3.3-0.1c1.1,0,2.2-0.2,3.3-0.5v12.1c-1.7,0.2-3.4,0.4-5.1,0.5
		c-1.6,0.2-3.3,0.3-5.1,0.3c-4.1,0-7.4-0.4-9.9-1.2s-4.5-1.9-5.9-3.4s-2.4-3.4-2.9-5.7c-0.5-2.3-0.8-4.9-0.9-7.8V531h-11.8V519.4z"
		/>
	<path class="st3" d="M-314.3,558.8c0,2.7,0.4,5.4,1.2,7.9c0.8,2.6,1.9,4.8,3.5,6.7c1.6,1.9,3.5,3.4,5.9,4.6
		c2.4,1.1,5.2,1.7,8.5,1.7c4.6,0,8.2-1,11-2.9c2.8-2,4.9-4.9,6.2-8.8h14.8c-0.8,3.8-2.2,7.3-4.2,10.3s-4.4,5.5-7.3,7.6
		c-2.8,2.1-6,3.6-9.5,4.7c-3.5,1-7.2,1.6-11,1.6c-5.6,0-10.5-0.9-14.8-2.7s-7.9-4.4-10.9-7.7s-5.2-7.2-6.7-11.8s-2.3-9.6-2.3-15.1
		c0-5,0.8-9.8,2.4-14.3s3.9-8.5,6.9-11.9c3-3.4,6.6-6.1,10.8-8.2c4.2-2,9-3,14.2-3c5.6,0,10.6,1.2,15,3.5s8.1,5.4,11,9.2
		s5,8.2,6.4,13.2c1.3,5,1.7,10.1,1,15.4C-262.2,558.8-314.3,558.8-314.3,558.8z M-277.8,548.5c-0.2-2.5-0.7-4.8-1.6-7.1
		s-2.1-4.3-3.6-6s-3.3-3.1-5.5-4.1c-2.1-1-4.5-1.6-7.2-1.6s-5.2,0.5-7.5,1.4c-2.2,1-4.2,2.3-5.8,4c-1.6,1.7-2.9,3.7-3.8,6
		c-1,2.3-1.5,4.8-1.6,7.4C-314.4,548.5-277.8,548.5-277.8,548.5z"/>
	<path class="st3" d="M-250.3,519.4h14.7v13.7h0.3c0.5-1.9,1.3-3.8,2.7-5.6c1.3-1.8,2.9-3.5,4.8-5s4-2.7,6.2-3.6
		c2.3-0.9,4.6-1.4,7-1.4c1.8,0,3.1,0,3.8,0.1c0.7,0.1,1.4,0.2,2.1,0.3V533c-1.1-0.2-2.2-0.3-3.4-0.5c-1.1-0.1-2.3-0.2-3.4-0.2
		c-2.6,0-5.1,0.5-7.5,1.6c-2.3,1.1-4.4,2.6-6.1,4.7c-1.7,2.1-3.1,4.6-4.1,7.6s-1.5,6.5-1.5,10.4v33.7h-15.6V519.4z"/>
</g>
</svg>
