<?xml version="1.0" encoding="utf-8"?>
<!-- Generator: Adobe Illustrator 19.1.0, SVG Export Plug-In . SVG Version: 6.00 Build 0)  -->
<svg version="1.1" id="Layer_1" xmlns="http://www.w3.org/2000/svg" xmlns:xlink="http://www.w3.org/1999/xlink" x="0px" y="0px"
	 viewBox="741 -154.4 1531.7 358.4" style="enable-background:new 741 -154.4 1531.7 358.4;" xml:space="preserve">
<style type="text/css">
	.st0{fill:none;}
	.st1{fill:#3B5A99;}
	.st2{display:none;opacity:0.35;fill:url(#SVGID_2_);enable-background:new    ;}
	.st3{clip-path:url(#SVGID_4_);}
	.st4{fill:#BDC5D6;}
	.st5{font-family:'Helvetica-Bold';}
	.st6{font-size:34.0305px;}
	.st7{enable-background:new    ;}
</style>
<pattern  x="741" y="204" width="150" height="100" patternUnits="userSpaceOnUse" id="SVGID_1_" viewBox="0 -126 150 100" style="overflow:visible;">
	<g>
		<polygon class="st0" points="0,-26 150,-26 150,-126 0,-126 		"/>
		<g>
			<polygon class="st0" points="0,-126 150,-126 150,-26 0,-26 			"/>
			<g>
				<polygon class="st0" points="0,-26 150,-26 150,-126 0,-126 				"/>
				<g>
					<polygon class="st0" points="0,-126 150,-126 150,-26 0,-26 					"/>
					<g>
						<polygon class="st0" points="0,-126 150,-126 150,-26 0,-26 						"/>
						<g>
							<path class="st1" d="M116.6-28.7c3.7,5.2,7.3,10.3,10.9,15.4c0.1,0,0.1,0,0.2,0c0-0.2,0.1-0.3,0.1-0.5
								c-0.1-1.3-0.1-2.7-0.2-4c-0.1-2-0.2-4.1-0.3-6.1c0-0.2,0.1-0.5,0.3-0.6c1.6-1.2,3.3-2.3,4.9-3.5c0.1-0.1,0.2-0.1,0.3-0.2
								c0.1,0.9,0.1,1.8,0.2,2.6c0.2,2.9,0.3,5.9,0.4,8.8c0,0.4,0.2,0.7,0.6,0.8c2.1,0.9,4.1,1.8,6.2,2.7c1.4,0.6,2.9,1.3,4.3,1.9
								c0.1,0.1,0.2,0.1,0.4,0.3c-0.2,0.1-0.3,0.2-0.4,0.3c-1.5,1.1-3.1,2.2-4.6,3.3c-0.3,0.2-0.6,0.2-0.9,0.1c-3-1.3-6.1-2.6-9.1-4
								c-0.2-0.1-0.4-0.2-0.6-0.2c-0.1,0-0.2,0-0.4,0c0,0.1,0,0.2,0.1,0.3s0.2,0.2,0.2,0.4c1.6,2.3,3.2,4.5,4.8,6.8
								c0.3,0.4,0.3,0.6-0.1,0.9c-1.3,0.9-2.6,1.9-4,2.8c-0.7,0.5-0.7,0.5-1.1-0.2c-3-4.2-6-8.4-8.9-12.6c-2.5-3.5-4.9-7-7.4-10.4
								c-0.4-0.5-0.4-0.6,0.1-1c1.3-1.3,2.5-2.5,3.8-3.8C116.4-28.5,116.5-28.6,116.6-28.7z"/>
						</g>
						<g>
							<path class="st1" d="M83.2-88.3c-1.2-1.3-2.8-1.7-4.6-1.1c-2.7,0.8-4.8,2.5-6.7,4.7c-0.6,0.7-0.6,0.8-1.2,0
								c-1.7-2.4-3.4-4.8-5-7.2c-0.2-0.3-0.4-0.4-0.7-0.1c-1.3,1.3-2.5,2.5-3.8,3.8c-0.3,0.2-0.3,0.4-0.1,0.7
								c0.3,0.4,0.6,0.8,0.9,1.2c4.7,6.7,9.5,13.4,14.2,20c0.4,0.6,0.9,1.2,1.3,1.9c0.2,0.2,0.3,0.3,0.6,0.1c1.9-1,3.8-2,5.6-3.1
								c2-1.3,3.9-2.7,5.4-4.6c0.8-1,1.4-2.1,1.5-3.4c0.1-1.2-0.1-2.4-0.7-3.5c-0.9-1.6-1.9-3.2-3-5C85.8-85.3,84.6-86.9,83.2-88.3z
								 M74.8-79.3c-0.2-0.3-0.2-0.6,0-0.9c0.6-0.9,1.2-1.7,2.1-2.3c1.3-0.9,2.6-0.7,3.6,0.6c1.1,1.5,2.1,3,3.2,4.5
								c1.1,1.6,0.8,3.1-0.7,4.2c-0.7,0.5-1.4,1-2.1,1.5c-0.3,0.2-0.5,0.2-0.7-0.1c-0.9-1.3-1.8-2.5-2.7-3.8
								C76.5-76.8,75.7-78.1,74.8-79.3z"/>
							<path class="st1" d="M116.6-128.7c3.7,5.2,7.3,10.3,10.9,15.4c0.1,0,0.1,0,0.2,0c0-0.2,0.1-0.3,0.1-0.5
								c-0.1-1.3-0.1-2.7-0.2-4c-0.1-2-0.2-4.1-0.3-6.1c0-0.2,0.1-0.5,0.3-0.6c1.6-1.2,3.3-2.3,4.9-3.5c0.1-0.1,0.2-0.1,0.3-0.2
								c0.1,0.9,0.1,1.8,0.2,2.6c0.2,2.9,0.3,5.9,0.4,8.8c0,0.4,0.2,0.7,0.6,0.8c2.1,0.9,4.1,1.8,6.2,2.7c1.4,0.6,2.9,1.3,4.3,1.9
								c0.1,0.1,0.2,0.1,0.4,0.3c-0.2,0.1-0.3,0.2-0.4,0.3c-1.5,1.1-3.1,2.2-4.6,3.3c-0.3,0.2-0.6,0.2-0.9,0.1c-3-1.3-6.1-2.6-9.1-4
								c-0.2-0.1-0.4-0.2-0.6-0.2c-0.1,0-0.2,0-0.4,0c0,0.1,0,0.2,0.1,0.3s0.2,0.2,0.2,0.4c1.6,2.3,3.2,4.5,4.8,6.8
								c0.3,0.4,0.3,0.6-0.1,0.9c-1.3,0.9-2.6,1.9-4,2.8c-0.7,0.5-0.7,0.5-1.1-0.2c-3-4.2-6-8.4-8.9-12.6c-2.5-3.5-4.9-7-7.4-10.4
								c-0.4-0.5-0.4-0.6,0.1-1c1.3-1.3,2.5-2.5,3.8-3.8C116.4-128.5,116.5-128.6,116.6-128.7z"/>
							<path class="st1" d="M68.9-63.4c-1.2,1-2.5,1.9-3.8,2.7c-0.9,0.5-1.8,0.4-2.6-0.3c-0.3-0.3-0.6-0.7-0.9-1.1
								c-0.2-0.3-0.2-0.5,0.1-0.7c0.1-0.1,0.2-0.2,0.4-0.2c2.8-2,5.7-4,8.5-6c0.2-0.2,0.5-0.3,0.2-0.6c-1.2-1.6-2.3-3.3-3.6-4.8
								c-2-2.2-4.8-2.8-7.6-1.7c-2.1,0.8-3.8,2-5.4,3.5c-1.1,1.1-2,2.4-2.3,4c-0.4,1.8,0,3.5,0.9,5c1.4,2.1,2.8,4.2,4.4,6.2
								c1.6,2,3.8,3,6.5,2.8c1.7-0.2,3.2-0.9,4.6-1.8c1.1-0.7,2.2-1.5,3.2-2.3c1.2-1,2.3-2.1,3.4-3.2c0.3-0.2,0.2-0.5,0-0.7
								c-0.8-1.1-1.6-2.2-2.4-3.4c-0.1-0.1-0.2-0.2-0.3-0.3C71.2-65.4,70.1-64.4,68.9-63.4z M59.3-66.2C59-66,58.8-66,58.6-66.3
								s-0.4-0.6-0.6-1c-0.6-1.3-0.3-2.3,0.9-3.1c0.2-0.2,0.5-0.3,0.7-0.5c1.8-0.9,2.9,0.1,3.7,1.5c0.2,0.3,0,0.4-0.2,0.6
								c-0.6,0.4-1.2,0.9-1.9,1.3l0,0C60.6-67.1,59.9-66.6,59.3-66.2z"/>
							<path class="st1" d="M91.7-81c1.8,1.8,4,2.6,6.5,2.1c1.7-0.3,3.2-1.2,4.6-2.2c1.2-0.8,2.3-1.8,3.1-2.9c1-1.3,1.6-2.8,1.5-4.5
								c-0.1-1.6-0.6-3-1.5-4.3c-1.4-2-2.7-4.1-4.3-5.9c-1.9-2.2-4.4-2.9-7.2-2c-2.6,0.8-4.8,2.3-6.6,4.4c-2.2,2.5-2.7,5.3-1.1,8.3
								c0.6,1.2,1.5,2.4,2.2,3.6C89.9-83.2,90.7-82,91.7-81z M101-89c0.7,1,0.5,2-0.3,3c-0.6,0.7-1.4,1.2-2.3,1.4
								c-0.8,0.2-1.4,0-2-0.5c-0.1-0.1-0.1-0.1-0.2-0.2c-1.3-1.8-2.7-3.6-3.8-5.4c-0.7-1.2-0.3-2.5,0.8-3.3c0.6-0.4,1.2-0.8,1.9-1
								c0.9-0.1,1.7,0.1,2.2,0.8c0.6,0.8,1.2,1.6,1.8,2.5l0,0C99.7-90.8,100.4-89.9,101-89z"/>
							<path class="st1" d="M108.7-93.2c2,2.2,4.6,2.9,7.5,2c2.4-0.8,4.5-2.2,6.2-4c1.1-1.1,1.8-2.4,2.1-3.9
								c0.4-1.9-0.1-3.7-1.1-5.3c-0.8-1.4-1.8-2.6-2.7-3.9c-0.6-0.8-1.2-1.6-1.8-2.3c-1.9-2-4.2-2.9-6.9-2.1c-3,0.8-5.5,2.6-7.4,5
								c-1.8,2.3-2.1,4.8-0.8,7.5c0.7,1.4,1.6,2.6,2.2,3.7C106.9-95.4,107.7-94.2,108.7-93.2z M118.1-101.1c0.7,1.1,0.6,2-0.3,3
								c-0.5,0.5-1.1,0.9-1.7,1.2c-1.3,0.6-2.3,0.2-3.2-1c-1.1-1.5-2.2-3-3.2-4.6c-0.9-1.3-0.6-2.8,0.7-3.8c0.3-0.2,0.7-0.5,1.1-0.7
								c1.3-0.6,2.5-0.3,3.3,0.9c0.3,0.4,0.5,0.8,0.8,1.1c0.3,0.4,0.5,0.8,0.8,1.1l0,0C116.9-102.8,117.5-102,118.1-101.1z"/>
							<path class="st1" d="M23-44c1.2-0.9,2.5-1.8,3.7-2.6c0.6-0.4,1.2-0.8,1.8-1.2c0.8-0.5,1.8-0.5,2.4,0.3
								c0.4,0.5,0.7,0.9,1.1,1.4c0.2,0.2,0.1,0.4-0.1,0.6c-1.3,1-2.7,1.9-4,2.9c-0.6,0.5-1.2,1-1.7,1.5c-1.4,1.6-1.7,3.3-0.8,5.2
								c0.4,0.9,1,1.7,1.6,2.4c1.3,1.4,2.9,2.2,5,1.9c1.8-0.3,3.2-1.4,4.4-2.6c0.9-0.9,1.7-1.9,2.3-3.1c0.2-0.4,0.4-0.3,0.7-0.1
								c0.2,0.2,0.4,0.4,0.6,0.6c0.1-0.1,0.3-0.2,0.4-0.3c1.1-0.8,2.3-1.6,3.4-2.4c0.4-0.3,0.4-0.5,0.1-0.8
								c-2.4-3.4-4.8-6.9-7.3-10.3c-0.7-0.9-1.4-1.7-2.2-2.5s-1.8-1.3-3-1.4c-2-0.1-3.7,0.7-5.2,1.8c-2,1.3-3.9,2.8-5.9,4.1
								c-0.3,0.3-0.3,0.5-0.1,0.8c0.8,1.3,1.5,2.7,2.4,4.1C22.7-43.8,22.9-43.9,23-44z M35.6-39.2c-0.5,0.8-1.1,1.4-2,1.8
								c-0.7,0.3-1.5,0-2.1-0.8c-0.5-0.7-0.5-1.3,0.2-1.9c0.9-0.7,1.9-1.4,2.8-2.1c0.1-0.1,0.4,0,0.5,0.1c0.2,0.2,0.4,0.5,0.5,0.7
								C36.3-40.3,36.3-40.3,35.6-39.2z"/>
							<path class="st1" d="M18-46.9c0.7,1.2,1.3,2.4,2,3.5c0,0.1,0.1,0.2,0.1,0.2c0.6,0.9,0.5,0.8-0.3,1.4
								c-0.7,0.5-1.5,1.1-2.2,1.6c-0.5,0.4-0.5,0.4-0.1,0.9c2.8,3.9,5.6,7.8,8.4,11.8c0.4,0.6,0.4,0.6-0.2,1c-1.3,1-2.7,1.9-4,2.9
								c-0.5,0.4-0.5,0.4-0.9-0.2c-2.7-3.9-5.5-7.7-8.2-11.6c-0.5-0.7-0.5-0.7-1.2-0.2c-0.5,0.4-1.1,0.8-1.6,1.2
								c-0.2,0.2-0.4,0.2-0.6-0.1c-0.8-1.2-1.7-2.4-2.6-3.6c-0.2-0.3-0.1-0.4,0.1-0.6c0.6-0.4,1.2-0.9,1.8-1.3
								c0.4-0.2,0.4-0.5,0.1-0.8c-0.7-0.9-1.4-1.9-2-2.9c-0.7-1-1.1-2-1.3-3.2c-0.2-1.8,0.5-3.2,1.6-4.5c1.4-1.5,3.2-2.5,4.9-3.7
								c0.1-0.1,0.4,0,0.4,0.1c0.9,1.2,1.8,2.5,2.6,3.7c0.2,0.3,0.1,0.4-0.1,0.5c-0.7,0.5-1.5,1-2.2,1.6c-1,0.8-1.1,1.5-0.3,2.6
								c0.5,0.7,1,1.4,1.5,2.1c0.2,0.4,0.5,0.4,0.8,0.1c1-0.7,2-1.4,3-2.2C17.7-46.6,17.8-46.7,18-46.9z"/>
							<path class="st1" d="M56.1-55c0.1,0.1,0.2,0.2,0.2,0.3c0.8,1.2,1.7,2.3,2.5,3.5c0.2,0.3,0.2,0.4,0,0.7
								c-1.6,1.7-3.3,3.4-5.4,4.7c-1.7,1-3.5,1.8-5.5,1.8c-1.9,0-3.4-0.8-4.7-2c-0.6-0.6-1.2-1.2-1.7-1.9c-1.1-1.5-2.2-3-3.2-4.6
								c-1.3-2.1-1.5-4.4-0.6-6.7c0.6-1.5,1.6-2.6,2.8-3.6c2-1.8,4.3-3,6.7-4c0.2-0.1,0.4-0.1,0.6,0.1c0.8,1.2,1.7,2.4,2.5,3.6
								c0,0,0.1,0.1,0.1,0.2c-0.7,0.3-1.4,0.7-2,1c-1.6,0.8-3.1,1.7-4.4,2.9c-0.7,0.7-1.1,1.5-0.7,2.5c0.1,0.3,0.3,0.7,0.5,1
								c1,1.5,2.1,2.9,3.1,4.4c0.5,0.7,1,1.3,1.9,1.4c0.8,0.1,1.4-0.2,2.1-0.6c1.6-1,3-2.2,4.3-3.6C55.5-54.4,55.8-54.7,56.1-55z"/>
						</g>
						<g>
							<path class="st1" d="M18-146.9c0.7,1.2,1.3,2.4,2,3.5c0,0.1,0.1,0.2,0.1,0.2c0.6,0.9,0.5,0.8-0.3,1.4
								c-0.7,0.5-1.5,1.1-2.2,1.6c-0.5,0.4-0.5,0.4-0.1,0.9c2.8,3.9,5.6,7.8,8.4,11.8c0.4,0.6,0.4,0.6-0.2,1c-1.3,1-2.7,1.9-4,2.9
								c-0.5,0.4-0.5,0.4-0.9-0.2c-2.7-3.9-5.5-7.7-8.2-11.6c-0.5-0.7-0.5-0.7-1.2-0.2c-0.5,0.4-1.1,0.8-1.6,1.2
								c-0.2,0.2-0.4,0.2-0.6-0.1c-0.8-1.2-1.7-2.4-2.6-3.6c-0.2-0.3-0.1-0.4,0.1-0.6c0.6-0.4,1.2-0.9,1.8-1.3
								c0.4-0.2,0.4-0.5,0.1-0.8c-0.7-0.9-1.4-1.9-2-2.9c-0.7-1-1.1-2-1.3-3.2c-0.2-1.8,0.5-3.2,1.6-4.5c1.4-1.5,3.2-2.5,4.9-3.7
								c0.1-0.1,0.4,0,0.4,0.1c0.9,1.2,1.8,2.5,2.6,3.7c0.2,0.3,0.1,0.4-0.1,0.5c-0.7,0.5-1.5,1-2.2,1.6c-1,0.8-1.1,1.5-0.3,2.6
								c0.5,0.7,1,1.4,1.5,2.1c0.2,0.4,0.5,0.4,0.8,0.1c1-0.7,2-1.4,3-2.2C17.7-146.6,17.8-146.7,18-146.9z"/>
						</g>
					</g>
				</g>
			</g>
		</g>
	</g>
</pattern>
<pattern  id="SVGID_2_" xlink:href="#SVGID_1_" patternTransform="matrix(1 0 0 1 461 34381.3633)">
</pattern>
<rect x="1537" y="214.9" class="st2" width="1531.7" height="358.4"/>
<g>
	<g>
		<g>
			<defs>
				<rect id="SVGID_3_" x="741" y="-181.8" width="1609" height="383.4"/>
			</defs>
			<clipPath id="SVGID_4_">
				<use xlink:href="#SVGID_3_"  style="overflow:visible;"/>
			</clipPath>
			<g class="st3">
				<text transform="matrix(0.8109 -0.5743 0.5639 0.8258 541.8499 -31.074)" class="st4 st5 st6">instagram  instagram  instagram  instagram  instagram  instagram  instagram  instagram </text>
				<text transform="matrix(0.8109 -0.5743 0.5639 0.8258 564.8781 2.6506)" class="st4 st5 st6">instagram  instagram  instagram  instagram  instagram  instagram  instagram  instagram</text>
				<text transform="matrix(0.8109 -0.5743 0.5639 0.8258 587.9074 36.3769)" class="st4 st5 st6">instagram  instagram  instagram  instagram  instagram  instagram  instagram  instagram</text>
				<text transform="matrix(0.8109 -0.5743 0.5639 0.8258 610.9364 70.1022)" class="st4 st5 st6">instagram  instagram  instagram  instagram  instagram  instagram  instagram  instagram</text>
				<text transform="matrix(0.8109 -0.5743 0.5639 0.8258 633.9651 103.8278)" class="st4 st5 st6">instagram  instagram  instagram  instagram  instagram  instagram  instagram  instagram</text>
				<text transform="matrix(0.8109 -0.5743 0.5639 0.8258 656.9937 137.5534)" class="st4 st5 st6">instagram  instagram  instagram  instagram  instagram  instagram  instagram  instagram</text>
				<text transform="matrix(0.8109 -0.5743 0.5639 0.8258 680.0229 171.2785)" class="st4 st5 st6">instagram  instagram  instagram  instagram  instagram  instagram  instagram  instagram</text>
				<text transform="matrix(0.8109 -0.5743 0.5639 0.8258 703.0511 205.0034)" class="st4 st5 st6">instagram  instagram  instagram  instagram  instagram  instagram  instagram  instagram</text>
				<text transform="matrix(0.8109 -0.5743 0.5639 0.8258 726.0812 238.7303)" class="st4 st5 st6">instagram  instagram  instagram  instagram  instagram  instagram  instagram  instagram</text>
				<text transform="matrix(0.8109 -0.5743 0.5639 0.8258 749.11 272.4559)" class="st4 st5 st6">instagram  instagram  instagram  instagram  instagram  instagram  instagram  instagram</text>
				<text transform="matrix(0.8109 -0.5743 0.5639 0.8258 772.1393 306.181)" class="st4 st5 st6">instagram  instagram  instagram  instagram  instagram  instagram  instagram  instagram </text>
				<text transform="matrix(0.8109 -0.5743 0.5639 0.8258 795.167 339.905)" class="st4 st5 st6">instagram  instagram  instagram  instagram  instagram  instagram  instagram  instagram</text>
				<text transform="matrix(0.8109 -0.5743 0.5639 0.8258 818.1956 373.6303)" class="st4 st5 st6">instagram  instagram  instagram  instagram  instagram  instagram  instagram  instagram</text>
				<text transform="matrix(0.8109 -0.5743 0.5639 0.8258 841.2255 407.3577)" class="st4 st5 st6">instagram  instagram  instagram  instagram  instagram  instagram  instagram  instagram</text>
				<text transform="matrix(0.8109 -0.5743 0.5639 0.8258 864.2548 441.0828)" class="st4 st5 st6">instagram  instagram  instagram  instagram  instagram  instagram  instagram  instagram</text>
				<text transform="matrix(0.8109 -0.5743 0.5639 0.8258 887.2834 474.8084)" class="st4 st5 st6">instagram  instagram  instagram  instagram  instagram  instagram  instagram  instagram</text>
				<text transform="matrix(0.8109 -0.5743 0.5639 0.8258 910.3121 508.534)" class="st4 st5 st6">instagram  instagram  instagram  instagram  instagram  instagram  instagram  instagram</text>
				<text transform="matrix(0.8109 -0.5743 0.5639 0.8258 933.3412 542.259)" class="st4 st5 st6">instagram  instagram  instagram  instagram  instagram  instagram  instagram  instagram</text>
				<text transform="matrix(0.8109 -0.5743 0.5639 0.8258 956.3699 575.9846)" class="st4 st5 st6">instagram  instagram  instagram  instagram  instagram  instagram  instagram  instagram</text>
				<text transform="matrix(0.8109 -0.5743 0.5639 0.8258 979.3984 609.7102)" class="st4 st5 st6">instagram  instagram  instagram  instagram  instagram  instagram  instagram  instagram</text>
				<text transform="matrix(0.8109 -0.5743 0.5639 0.8258 1002.4277 643.4355)" class="st4 st5 st6">instagram  instagram  instagram  instagram  instagram  instagram  instagram  instagram</text>
				<text transform="matrix(0.8109 -0.5743 0.5639 0.8258 1025.4565 677.1609)" class="st4 st5 st6">instagram  instagram  instagram  instagram  instagram  instagram  instagram  instagram</text>
				<text transform="matrix(0.8109 -0.5743 0.5639 0.8258 1048.4852 710.8864)" class="st4 st5 st6">instagram  instagram  instagram  instagram  instagram  instagram  instagram  instagram</text>
				<text transform="matrix(0.8109 -0.5743 0.5639 0.8258 1071.514 744.6111)" class="st4 st5 st6">instagram  instagram  instagram  instagram  instagram  instagram  instagram  instagram</text>
				<text transform="matrix(0.8109 -0.5743 0.5639 0.8258 1094.5432 778.3373)" class="st4 st5 st6">instagram  instagram  instagram  instagram  instagram  instagram  instagram  instagram</text>
				<text transform="matrix(0.8109 -0.5743 0.5639 0.8258 1117.5724 812.0628)" class="st4 st5 st6">instagram  instagram  instagram  instagram  instagram  instagram  instagram  instagram</text>
				<text transform="matrix(0.8109 -0.5743 0.5639 0.8258 1140.6016 845.7888)" class="st4 st5 st6">instagram  instagram  instagram  instagram  instagram  instagram  instagram  instagram</text>
				<text transform="matrix(0.8109 -0.5743 0.5639 0.8258 1163.6301 879.5134)" class="st4 st5 st6">instagram  instagram  instagram  instagram  instagram  instagram  instagram  instagram</text>
				<text transform="matrix(0.8109 -0.5743 0.5639 0.8258 1186.6589 913.239)" class="st4 st5 st6">instagram  instagram  instagram  instagram  instagram  instagram  instagram  instagram</text>
				<text transform="matrix(0.8109 -0.5743 0.5639 0.8258 1209.6876 946.9646)" class="st4 st5 st6">instagram  instagram  instagram  instagram  instagram  instagram  instagram  instagram</text>
				<text transform="matrix(0.8109 -0.5743 0.5639 0.8258 1232.7177 980.6915)" class="st4 st5 st6">instagram  instagram  instagram  instagram  instagram  instagram  instagram  instagram</text>
				<text transform="matrix(0.8109 -0.5743 0.5639 0.8258 1255.7461 1014.4171)" class="st4 st5 st6">instagram  instagram  instagram  instagram  instagram  instagram  instagram  instagram</text>
				<text transform="matrix(0.8109 -0.5743 0.5639 0.8258 1278.7753 1048.1422)" class="st4 st5 st6">instagram  instagram  instagram  instagram  instagram  instagram  instagram  instagram</text>
				<text transform="matrix(0.8109 -0.5743 0.5639 0.8258 1301.8041 1081.8682)" class="st4 st5 st6">instagram  instagram  instagram  instagram  instagram  instagram  instagram  instagram</text>
				<text transform="matrix(0.8109 -0.5743 0.5639 0.8258 1324.833 1115.5933)" class="st4 st5 st6">instagram  instagram  instagram  instagram  instagram  instagram  instagram  instagram</text>
				<text transform="matrix(0.8109 -0.5743 0.5639 0.8258 1347.8618 1149.3191)" class="st4 st5 st6">instagram  instagram  instagram  instagram  instagram  instagram  instagram  instagram</text>
				<text transform="matrix(0.8109 -0.5743 0.5639 0.8258 1370.8907 1183.0444)" class="st4 st5 st6">instagram  instagram  instagram  instagram  instagram  instagram  instagram  instagram</text>
				<text transform="matrix(0.8109 -0.5743 0.5639 0.8258 1393.9199 1216.7695)" class="st4 st5 st6">instagram  instagram  instagram  instagram  instagram  instagram  instagram  instagram</text>
				<text transform="matrix(0.8109 -0.5743 0.5639 0.8258 1439.9774 1284.2202)" class="st4 st5 st6"> </text>
				<text transform="matrix(0.8109 -0.5743 0.5639 0.8258 1463.0062 1317.9458)" class="st4 st5 st6"> </text>
			</g>
		</g>
	</g>
</g>
</svg>
