<?xml version="1.0" encoding="utf-8"?>
<!-- Generator: Adobe Illustrator 19.1.0, SVG Export Plug-In . SVG Version: 6.00 Build 0)  -->
<svg version="1.1" id="Layer_1" xmlns="http://www.w3.org/2000/svg" xmlns:xlink="http://www.w3.org/1999/xlink" x="0px" y="0px"
	 viewBox="-12 14 24 24" style="enable-background:new -12 14 24 24;" xml:space="preserve">
<style type="text/css">
	.st0{fill:#9C9C9C;}
</style>
<path class="st0" d="M8,20.5C8,20.8,7.8,21,7.5,21h-2C5.2,21,5,20.8,5,20.5v-2C5,18.2,5.2,18,5.5,18h2C7.8,18,8,18.2,8,18.5
	 M-7.5,34C-7.8,34-8,33.8-8,33.5V25h2.1C-6,25.3-6,25.7-6,26c0,3.3,2.7,6,6,6c3.3,0,6-2.7,6-6c0-0.3,0-0.7-0.1-1H8v8.5
	C8,33.8,7.8,34,7.5,34 M0,22c2.2,0,4,1.8,4,4c0,2.2-1.8,4-4,4c-2.2,0-4-1.8-4-4C-4,23.8-2.2,22,0,22z M8,16H-8c-1.1,0-2,0.9-2,2
	l0,16c0,1.1,0.9,2,2,2H8c1.1,0,2-0.9,2-2V18C10,16.9,9.1,16,8,16z"/>
</svg>
