<?xml version="1.0" encoding="utf-8"?>
<!-- Generator: Adobe Illustrator 18.1.1, SVG Export Plug-In . SVG Version: 6.00 Build 0)  -->
<svg version="1.1" id="Layer_1" xmlns="http://www.w3.org/2000/svg" xmlns:xlink="http://www.w3.org/1999/xlink" x="0px" y="0px"
   width="1586.7px" height="888.2px" viewBox="0 0 1586.7 888.2" enable-background="new 0 0 1586.7 888.2" xml:space="preserve">
<g>
  <path fill="#FF372A" d="M990.9,888.2c190.4-139,508.5-342.9,595.8-398.5V77.1C875.2,462.2,457.1,814.7,372.9,888.2H990.9z"/>
  <radialGradient id="SVGID_1_" cx="793.7361" cy="443.3372" r="661.7996" gradientUnits="userSpaceOnUse">
    <stop  offset="0" style="stop-color:#64646E"/>
    <stop  offset="1" style="stop-color:#232323"/>
  </radialGradient>
  <path fill="url(#SVGID_1_)" d="M990.9,888.2c190.4-139,508.5-342.9,595.8-398.5V77.1C875.2,462.2,457.1,814.7,372.9,888.2H990.9z"
    />
  <path fill="#FF372A" d="M0,498.3v389.9h218C899.6,254.6,933.4,86,947.1,0H375.4C307.8,224,73.7,435.9,0,498.3z"/>
  <radialGradient id="SVGID_2_" cx="793.7361" cy="444.1234" r="660.7545" gradientUnits="userSpaceOnUse">
    <stop  offset="0" style="stop-color:#64646E"/>
    <stop  offset="1" style="stop-color:#232323"/>
  </radialGradient>
  <path fill="url(#SVGID_2_)" d="M0,498.3v389.9h218C899.6,254.6,933.4,86,947.1,0H375.4C307.8,224,73.7,435.9,0,498.3z"/>
  <path fill="#FF372A" d="M375.4,0H0v498.3C73.7,435.9,307.8,224,375.4,0z"/>
  <radialGradient id="SVGID_3_" cx="793.7361" cy="443.3372" r="661.7996" gradientUnits="userSpaceOnUse">
    <stop  offset="0" style="stop-color:#64646E"/>
    <stop  offset="1" style="stop-color:#232323"/>
  </radialGradient>
  <path fill="url(#SVGID_3_)" d="M375.4,0H0v498.3C73.7,435.9,307.8,224,375.4,0z"/>
  <radialGradient id="SVGID_4_" cx="271.5775" cy="240.8473" r="856.5728" gradientUnits="userSpaceOnUse">
    <stop  offset="0" style="stop-color:#FFFFFF"/>
    <stop  offset="1" style="stop-color:#000000"/>
  </radialGradient>
  <path fill="url(#SVGID_4_)" d="M375.4,0H0v498.3C73.7,435.9,307.8,224,375.4,0z"/>
  <path fill="#FF372A" d="M1586.7,888.2V489.7c-87.3,55.6-405.3,259.6-595.8,398.5H1586.7z"/>
  <radialGradient id="SVGID_5_" cx="793.7361" cy="443.3372" r="661.7996" gradientUnits="userSpaceOnUse">
    <stop  offset="0" style="stop-color:#64646E"/>
    <stop  offset="1" style="stop-color:#232323"/>
  </radialGradient>
  <path fill="url(#SVGID_5_)" d="M1586.7,888.2V489.7c-87.3,55.6-405.3,259.6-595.8,398.5H1586.7z"/>

    <radialGradient id="SVGID_6_" cx="1329.7324" cy="745.4528" r="863.9979" fx="1265.7767" fy="678.0352" gradientUnits="userSpaceOnUse">
    <stop  offset="0" style="stop-color:#FFFFFF"/>
    <stop  offset="1" style="stop-color:#000000"/>
  </radialGradient>
  <path fill="url(#SVGID_6_)" d="M1586.7,888.2V489.7c-87.3,55.6-405.3,259.6-595.8,398.5H1586.7z"/>
  <path fill="#FF372A" d="M218,888.2h154.9c84.2-73.6,502.2-426,1213.8-811.2V0H947.1C933.4,86,899.6,254.6,218,888.2z"/>
  <radialGradient id="SVGID_7_" cx="793.7361" cy="444.1234" r="661.5198" gradientUnits="userSpaceOnUse">
    <stop  offset="0" style="stop-color:#64646E"/>
    <stop  offset="1" style="stop-color:#232323"/>
  </radialGradient>
  <path fill="url(#SVGID_7_)" d="M218,888.2h154.9c84.2-73.6,502.2-426,1213.8-811.2V0H947.1C933.4,86,899.6,254.6,218,888.2z"/>
  <radialGradient id="SVGID_8_" cx="821.1408" cy="431.0065" r="645.7609" gradientUnits="userSpaceOnUse">
    <stop  offset="0" style="stop-color:#FF372A"/>
    <stop  offset="1" style="stop-color:#731700"/>
  </radialGradient>
  <path fill="url(#SVGID_8_)" d="M218,888.2h154.9c84.2-73.6,502.2-426,1213.8-811.2V0H947.1C933.4,86,899.6,254.6,218,888.2z"/>
</g>
</svg>
