<?xml version="1.0" encoding="utf-8"?>
<!-- Generator: Adobe Illustrator 18.1.1, SVG Export Plug-In . SVG Version: 6.00 Build 0)  -->
<svg version="1.1" id="Layer_1" xmlns="http://www.w3.org/2000/svg" xmlns:xlink="http://www.w3.org/1999/xlink" x="0px" y="0px"
	 viewBox="0 0 1920 1080" enable-background="new 0 0 1920 1080" xml:space="preserve">
<radialGradient id="SVGID_1_" cx="960.2382" cy="540" r="778.3759" gradientUnits="userSpaceOnUse">
	<stop  offset="0" style="stop-color:#FFFFFF"/>
	<stop  offset="1" style="stop-color:#D1D3D4"/>
</radialGradient>
<rect x="1" fill="url(#SVGID_1_)" width="1918.5" height="1080"/>
<g>
	<path fill="#9D9C9C" d="M941.9,558.5l-76.5-133.9c-2.6-4.6-6.5-7.2-10.7-7.2c-4.2,0-8.1,2.6-10.7,7.2l-76.5,133.9
		c-2.6,4.6-2.9,9.3-0.8,12.9c2.1,3.6,6.3,5.7,11.6,5.7h152.8c5.3,0,9.5-2.1,11.6-5.7C944.8,567.8,944.5,563.1,941.9,558.5z
		 M935.3,567.1c-0.5,0.9-2.1,1.5-4.3,1.5H778.2c-2.1,0-3.7-0.6-4.3-1.5c-0.5-0.9-0.2-2.6,0.8-4.4l76.5-133.9c1-1.8,2.3-2.9,3.3-2.9
		s2.3,1.1,3.3,2.9l76.5,133.9C935.6,564.6,935.9,566.2,935.3,567.1z"/>
	<path fill="#9D9C9C" d="M854.6,468.2c-6.3,0-11.3,4.6-11.3,13.8s1.3,45.7,11.3,45.7s11.3-36.5,11.3-45.7S860.9,468.2,854.6,468.2z"
		/>
	<circle fill="#9D9C9C" cx="854.6" cy="547.4" r="11.3"/>
</g>
<text transform="matrix(1 0 0 1 974.8403 452.2568)" fill="#9D9C9C" font-family="'Lato-Bold'" font-size="69.9791">Oops!</text>
<text transform="matrix(1 0 0 1 974.8413 493.0771)" fill="#554A4D" font-family="'Lato-Hairline'" font-size="25.8019">Something went wrong...</text>
</svg>
