<?xml version="1.0" encoding="utf-8"?>
<svg version="1.1" id="Layer_1" xmlns="http://www.w3.org/2000/svg" xmlns:xlink="http://www.w3.org/1999/xlink" x="0px" y="0px"
	 viewBox="0 0 500 200" enable-background="new 0 0 500 200" xml:space="preserve">
<g>
	<g opacity="0.48">
		<g>
			<path fill="#C9C9C9" d="M102.1,104.6c-8.2,8.1-12.6,18.9-12.6,31c0,12,4.4,23,12.5,31s18.9,12.2,31.6,12.2
				c9.9,0,18.3-2.5,25.6-7.7V156c-8.1,6.9-16.8,10.4-26.6,10.4c-16.5,0-29.1-12.6-29.1-30.7c0-18.3,12.3-31.1,30.4-31.1
				c9.3,0,17.8,3.2,25.4,9.7l0.7-13.5c-8.1-5.6-16.7-8.5-26.6-8.5C121,92.3,110.3,96.6,102.1,104.6z"/>
			<path fill="#C9C9C9" d="M206.6,93.2l-39.9,85.7h14.1l9.6-21.2h32.6l9.3,21.2h14.2L206.6,93.2z M195.3,146.5l8.4-18.8
				c0.9-2.2,2-5.2,3-9.3c1.2,4.2,2.2,7.2,3.1,9.3l8.4,18.8H195.3z"/>
			<polygon fill="#C9C9C9" points="269.5,93.1 256.1,93.1 256.1,178.9 299.4,178.9 299.4,166.9 269.5,166.9 			"/>
			<path fill="#C9C9C9" d="M347.2,93.2l-39.9,85.7h14.1l9.6-21.2h32.6l9.3,21.2h14.2L347.2,93.2z M335.9,146.5l8.4-18.8
				c0.9-2.2,2-5.2,3-9.3c1.1,4.2,2.2,7.2,3.1,9.3l8.4,18.8H335.9z"/>
			<path fill="#C9C9C9" d="M81.1,153.4c0,15.3-11.7,25.5-31.1,25.5c-16,0-26.5-6.7-29.7-18.7l12.2-5c2.2,7.4,8.5,11.3,18.1,11.3
				c9.2,0,14.8-4.8,14.8-12.2c0-8.1-7-10-16.7-14.2C32.1,133,23,127.4,23,115c0-13.3,11.2-22.6,28.2-22.6c13.9,0,23.5,5,27,13.6
				l-11.9,5.4c-3.7-5.1-8-7.5-13.9-7.5c-8.3,0-13.4,4.2-13.4,10.4c0,8,7.3,10.4,17.8,14.6C73.3,135.6,81.1,141.5,81.1,153.4z"/>
		</g>
		<g>
			<path fill="#C9C9C9" d="M479.6,94.2c0,1.1-0.8,1.9-1.9,1.9s-1.9-0.9-1.9-1.9c0-1.1,0.8-1.9,1.9-1.9
				C478.8,92.2,479.6,93.1,479.6,94.2z M476,94.2c0,0.9,0.7,1.7,1.6,1.7s1.6-0.7,1.6-1.7c0-0.9-0.7-1.7-1.6-1.7
				C476.7,92.5,476,93.2,476,94.2z M477.2,95.3h-0.3v-2.2h0.9c0.5,0,0.7,0.2,0.7,0.6c0,0.4-0.3,0.6-0.6,0.6l0.7,1h-0.3l-0.6-1h-0.5
				L477.2,95.3L477.2,95.3z M477.6,94.1c0.3,0,0.7,0,0.7-0.4c0-0.3-0.3-0.4-0.5-0.4h-0.5v0.8L477.6,94.1L477.6,94.1z"/>
		</g>
		<path fill="#C9C9C9" d="M463.5,92h-56.2c-8.5,0-15.3,6.9-15.3,15.3v56.2c0,8.4,6.8,15.3,15.3,15.3h56.2c8.4,0,15.3-6.8,15.3-15.3
			v-56.2C478.8,98.9,471.9,92,463.5,92z M410.6,169.9c-5.3,0-9.6-4.3-9.6-9.6c0-5.3,4.3-9.6,9.6-9.6c5.3,0,9.6,4.3,9.6,9.6
			C420.2,165.6,415.9,169.9,410.6,169.9z M467.6,116.7l-33.8,34.1c-2.4,2-6.1,2.8-9.2,1.6c-3.1-1-5.7-4.1-6.2-7.2
			c-0.8-4.3,1.6-7.7,4.8-10.5l29.9-30.1c2.5-3,6.6-4,10.3-2.8c2.4,0.8,4.6,2.8,5.5,5.1C470.3,110,469.8,114.2,467.6,116.7z"/>
	</g>

		<text transform="matrix(1 0 0 1 20.3865 75.6226)" opacity="0.48" fill="#C9C9C9" enable-background="new    " font-family="'MyriadArabic-Regular'" font-size="72.6851">powered by</text>
</g>
</svg>
